<?xml version="1.0" encoding="ISO-8859-1"?>
<!-- Generator: Adobe Illustrator 13.0.2, SVG Export Plug-In . SVG Version: 6.00 Build 14948)  -->
<!DOCTYPE svg PUBLIC "-//W3C//DTD SVG 1.1//EN" "http://www.w3.org/Graphics/SVG/1.1/DTD/svg11.dtd">
<svg version="1.1" id="Layer_1" xmlns="http://www.w3.org/2000/svg" xmlns:xlink="http://www.w3.org/1999/xlink" x="0px" y="0px" width="154.391px" height="76.883px" viewBox="0 0 154.391 76.883" style="" xml:space="preserve">
<g>
	<path d="M106.352,46.32c0,16.867-13.68,30.562-30.555,30.562c-16.883,0-30.555-13.694-30.555-30.562   c0-16.875,13.672-30.57,30.555-30.57C92.672,15.75,106.352,29.445,106.352,46.32h-8.555c0-12.148-9.853-22-22-22   c-12.148,0-22,9.852-22,22c0,12.141,9.852,21.992,22,21.992c12.147,0,22-9.853,22-21.992H106.352z"/>
	<path d="M152.703,0c-2.884,3.461-6.75,3.461-6.75,3.461L44.344,5.68C35.078,6,33.391,13.359,33.18,17.523   c-0.883-1.312-2.383-2.164-4.07-2.164c-2.719,0-4.914,2.195-4.914,4.922c0,2.711,2.195,4.891,4.914,4.891   c1.898,0,3.539-1.086,4.353-2.656c0.438,2.586,1.695,6.883,5.272,9.211L21.914,59.07l-9.478,0.945v-3.125L0,57.781L1.32,74.688   l29.484-3.617l16.055-26.484l8.32-12.492l4.586-0.594l9.767,9.766c-0.688,0.853-1.203,1.828-1.5,2.93H50.523v3.103h17.289   c0.148,1.242,0.556,2.397,1.211,3.414l-12.078,12.07l2.188,2.188l12.031-12.04c1.016,0.711,2.203,1.164,3.477,1.359v17.102h3.086   v-17.25c1.164-0.281,2.228-0.828,3.125-1.562L93.235,64.97l2.181-2.188L82.828,50.227c0.516-0.897,0.828-1.883,0.953-2.93h18.069   v-3.102H83.562c-0.242-0.906-0.625-1.758-1.147-2.508l13-13l-1.547-1.562l53.319-6.844c0,0,3.806-0.578,7.203,2.805L152.703,0z    M74.641,29.594v8.75c-0.983,0.164-1.906,0.477-2.742,0.945l-8.266-8.281L74.641,29.594z M80.195,39.539   c-0.75-0.477-1.586-0.828-2.469-1.047v-9.305l14.695-1.875L80.195,39.539z"/>
</g>
</svg>