<?xml version="1.0" encoding="UTF-8" standalone="no"?>
<!-- Created with Inkscape (http://www.inkscape.org/) -->

<svg
   xmlns:osb="http://www.openswatchbook.org/uri/2009/osb"
   xmlns:dc="http://purl.org/dc/elements/1.1/"
   xmlns:cc="http://creativecommons.org/ns#"
   xmlns:rdf="http://www.w3.org/1999/02/22-rdf-syntax-ns#"
   xmlns:svg="http://www.w3.org/2000/svg"
   xmlns="http://www.w3.org/2000/svg"
   xmlns:xlink="http://www.w3.org/1999/xlink"
   xmlns:sodipodi="http://sodipodi.sourceforge.net/DTD/sodipodi-0.dtd"
   xmlns:inkscape="http://www.inkscape.org/namespaces/inkscape"
   width="744.09448819"
   height="1052.3622047"
   id="svg2"
   version="1.1"
   inkscape:version="0.48.1 r9760"
   sodipodi:docname="armonico_vista.svg"
   inkscape:export-filename="/home/mosa/Sources/Scuola/paschini_tolmezzo/lezioni/immagini/armonico_vista.png"
   inkscape:export-xdpi="300"
   inkscape:export-ydpi="300">
  <sodipodi:namedview
     id="base"
     pagecolor="#ffffff"
     bordercolor="#666666"
     borderopacity="1.0"
     inkscape:pageopacity="0.0"
     inkscape:pageshadow="2"
     inkscape:zoom="1.1239459"
     inkscape:cx="509.77765"
     inkscape:cy="503.10134"
     inkscape:document-units="px"
     inkscape:current-layer="layer1"
     showgrid="false"
     inkscape:window-width="1280"
     inkscape:window-height="965"
     inkscape:window-x="0"
     inkscape:window-y="0"
     inkscape:window-maximized="1" />
  <defs
     id="defs4">
    <marker
       inkscape:stockid="Arrow1Lstart"
       orient="auto"
       refY="0.0"
       refX="0.0"
       id="Arrow1Lstart"
       style="overflow:visible">
      <path
         id="path3830"
         d="M 0.0,0.0 L 5.0,-5.0 L -12.5,0.0 L 5.0,5.0 L 0.0,0.0 z "
         style="fill-rule:evenodd;stroke:#000000;stroke-width:1.0pt;marker-start:none"
         transform="scale(0.8) translate(12.5,0)" />
    </marker>
    <marker
       inkscape:stockid="Arrow1Sstart"
       orient="auto"
       refY="0.0"
       refX="0.0"
       id="Arrow1Sstart"
       style="overflow:visible">
      <path
         id="path3842"
         d="M 0.0,0.0 L 5.0,-5.0 L -12.5,0.0 L 5.0,5.0 L 0.0,0.0 z "
         style="fill-rule:evenodd;stroke:#000000;stroke-width:1.0pt;marker-start:none"
         transform="scale(0.2) translate(6,0)" />
    </marker>
    <pattern
       inkscape:collect="always"
       xlink:href="#Strips1_1"
       id="pattern8387"
       patternTransform="matrix(10,0,0,10,-6.7552963,-13.107474)" />
    <pattern
       inkscape:stockid="Stripes 1:1"
       id="Strips1_1"
       patternTransform="translate(0,0) scale(10,10)"
       height="1"
       width="2"
       patternUnits="userSpaceOnUse"
       inkscape:collect="always">
      <rect
         id="rect7628"
         height="2"
         width="1"
         y="-0.5"
         x="0"
         style="fill:black;stroke:none" />
    </pattern>
    <linearGradient
       id="linearGradient8343"
       osb:paint="solid">
      <stop
         style="stop-color:#ff0000;stop-opacity:1;"
         offset="0"
         id="stop8345" />
    </linearGradient>
    <marker
       inkscape:stockid="Arrow1Mend"
       orient="auto"
       refY="0.0"
       refX="0.0"
       id="Arrow1Mend"
       style="overflow:visible;">
      <path
         id="path5833"
         d="M 0.0,0.0 L 5.0,-5.0 L -12.5,0.0 L 5.0,5.0 L 0.0,0.0 z "
         style="fill-rule:evenodd;stroke:#000000;stroke-width:1.0pt;marker-start:none;"
         transform="scale(0.4) rotate(180) translate(10,0)" />
    </marker>
    <marker
       inkscape:stockid="Arrow1Mendw"
       orient="auto"
       refY="0.0"
       refX="0.0"
       id="Arrow1Mendw"
       style="overflow:visible;">
      <path
         id="path6270"
         d="M 0.0,0.0 L 5.0,-5.0 L -12.5,0.0 L 5.0,5.0 L 0.0,0.0 z "
         style="marker-start:none;stroke:#ff0000;stroke-width:1.0pt;fill:#ff0000;fill-rule:evenodd"
         transform="scale(0.4) rotate(180) translate(10,0)" />
    </marker>
    <marker
       inkscape:stockid="Arrow1Mendw"
       orient="auto"
       refY="0"
       refX="0"
       id="Arrow1Mendw-6"
       style="overflow:visible">
      <path
         id="path6270-9"
         d="M 0,0 5,-5 -12.5,0 5,5 0,0 z"
         style="fill:#ff0000;fill-rule:evenodd;stroke:#ff0000;stroke-width:1pt;marker-start:none"
         transform="matrix(-0.4,0,0,-0.4,-4,0)"
         inkscape:connector-curvature="0" />
    </marker>
    <marker
       inkscape:stockid="Arrow1Mendwq"
       orient="auto"
       refY="0.0"
       refX="0.0"
       id="Arrow1Mendwq"
       style="overflow:visible;">
      <path
         id="path6330"
         d="M 0.0,0.0 L 5.0,-5.0 L -12.5,0.0 L 5.0,5.0 L 0.0,0.0 z "
         style="fill-rule:evenodd;marker-start:none;stroke:#0040ff;stroke-width:1.0pt;fill:#0040ff"
         transform="scale(0.4) rotate(180) translate(10,0)" />
    </marker>
  </defs>
  <metadata
     id="metadata7">
    <rdf:RDF>
      <cc:Work
         rdf:about="">
        <dc:format>image/svg+xml</dc:format>
        <dc:type
           rdf:resource="http://purl.org/dc/dcmitype/StillImage" />
        <dc:title />
      </cc:Work>
    </rdf:RDF>
  </metadata>
  <g
     inkscape:label="Layer 1"
     inkscape:groupmode="layer"
     id="layer1">
    <path
       style="fill:none;stroke:#000000;stroke-width:2.7;stroke-linecap:butt;stroke-linejoin:miter;stroke-opacity:1;stroke-miterlimit:4;stroke-dasharray:none;marker-start:url(#Arrow1Lstart)"
       d="M 431.51542,54.093528 430.6257,675.11983"
       id="path8619"
       inkscape:connector-curvature="0" />
    <g
       id="g8409"
       transform="translate(-69.398356,14.23556)">
      <path
         transform="translate(-203.74646,55.162796)"
         d="m 700.21162,613.28412 c 0,15.96985 -4.97928,28.91598 -11.12153,28.91598 -6.14225,0 -11.12153,-12.94613 -11.12153,-28.91598 0,-15.96986 4.97928,-28.91598 11.12153,-28.91598 6.14225,0 11.12153,12.94612 11.12153,28.91598 z"
         sodipodi:ry="28.915981"
         sodipodi:rx="11.121531"
         sodipodi:cy="613.28412"
         sodipodi:cx="689.09009"
         id="path8389"
         style="fill:#6a3a1a;fill-opacity:1;fill-rule:nonzero;stroke:none"
         sodipodi:type="arc" />
      <path
         transform="translate(-174.83048,54.717941)"
         d="m 700.21162,613.28412 c 0,15.96985 -4.97928,28.91598 -11.12153,28.91598 -6.14225,0 -11.12153,-12.94613 -11.12153,-28.91598 0,-15.96986 4.97928,-28.91598 11.12153,-28.91598 6.14225,0 11.12153,12.94612 11.12153,28.91598 z"
         sodipodi:ry="28.915981"
         sodipodi:rx="11.121531"
         sodipodi:cy="613.28412"
         sodipodi:cx="689.09009"
         id="path8389-2"
         style="fill:#6a3a1a;fill-opacity:1;fill-rule:nonzero;stroke:none"
         sodipodi:type="arc" />
    </g>
    <path
       sodipodi:type="arc"
       style="fill:url(#pattern8387);fill-opacity:1;fill-rule:nonzero;stroke:none"
       id="path6889"
       sodipodi:cx="667.29187"
       sodipodi:cy="607.9458"
       sodipodi:rx="61.390854"
       sodipodi:ry="64.504883"
       d="m 728.68272,607.9458 a 61.390854,64.504883 0 1 1 -122.7817,0 61.390854,64.504883 0 1 1 122.7817,0 z"
       transform="matrix(0.0043895,-0.41302591,1.1516811,0.00922717,-277.35657,980.26309)" />
    <path
       sodipodi:type="arc"
       style="fill:none;fill-opacity:1;stroke:#000000;stroke-width:1.81888571;stroke-miterlimit:4;stroke-opacity:1;stroke-dasharray:none"
       id="path5047"
       sodipodi:cx="243.85027"
       sodipodi:cy="404.66165"
       sodipodi:rx="137.75401"
       sodipodi:ry="137.75401"
       d="m 381.60428,404.66165 a 137.75401,137.75401 0 1 1 -275.50803,0 137.75401,137.75401 0 1 1 275.50803,0 z"
       transform="matrix(1.8274925,0,0,1.8274925,-23.816351,-375.92399)" />
    <path
       style="stroke-linejoin:miter;marker-end:url(#Arrow1Mendw);stroke-opacity:1;stroke:#ff0000;stroke-linecap:butt;stroke-miterlimit:4;stroke-dasharray:none;stroke-width:3.10000000000000009;fill:none"
       d="M 592.08556,174.50122 463.74331,319.95577"
       id="path5819"
       inkscape:connector-curvature="0" />
    <path
       inkscape:connector-curvature="0"
       id="path6286"
       d="m 740.53364,372.32966 -672.772392,0"
       style="fill:none;stroke:#000000;stroke-width:2.7;stroke-linecap:butt;stroke-linejoin:miter;stroke-miterlimit:4;stroke-opacity:1;stroke-dasharray:none;marker-start:url(#Arrow1Lstart)" />
    <path
       sodipodi:nodetypes="cc"
       style="stroke-linejoin:miter;marker-end:url(#Arrow1Mendwq);stroke-opacity:1;stroke:#0040ff;stroke-linecap:butt;stroke-miterlimit:4;stroke-dasharray:none;stroke-width:3.09999989999999981;fill:none"
       d="M 591.33831,323.58793 464.86487,323.8398"
       id="path5819-4"
       inkscape:connector-curvature="0" />
    <rect
       transform="matrix(0.73688912,0.67601363,-0.67601363,0.73688912,0,0)"
       y="-282.70871"
       x="542.98676"
       height="23.101604"
       width="25.240643"
       id="rect6314"
       style="fill:#168f04;fill-opacity:1;stroke:none" />
    <text
       sodipodi:linespacing="125%"
       id="text6316"
       y="177.92368"
       x="588.23529"
       style="font-size:11px;font-style:normal;font-variant:normal;font-weight:normal;font-stretch:normal;line-height:125%;letter-spacing:0px;word-spacing:0px;fill:#000000;fill-opacity:1;stroke:none;font-family:Bitstream Charter;-inkscape-font-specification:Bitstream Charter"
       xml:space="preserve"><tspan
         style="fill:#ffffff;fill-opacity:1"
         y="177.92368"
         x="588.23529"
         id="tspan6318"
         sodipodi:role="line">M</tspan></text>
    <rect
       transform="matrix(0.73688912,0.67601363,-0.67601363,0.73688912,0,0)"
       y="-175.09106"
       x="640.84314"
       height="23.101604"
       width="25.240643"
       id="rect6314-9"
       style="fill:#ffffff;fill-opacity:1;stroke:#0ea000;stroke-width:1;stroke-miterlimit:4;stroke-opacity:1;stroke-dasharray:6, 1;stroke-dashoffset:0" />
    <text
       xml:space="preserve"
       style="font-size:11px;font-style:normal;font-variant:normal;font-weight:normal;font-stretch:normal;line-height:125%;letter-spacing:0px;word-spacing:0px;fill:#000000;fill-opacity:1;stroke:none;font-family:Bitstream Charter;-inkscape-font-specification:Bitstream Charter"
       x="587.37964"
       y="324.23383"
       id="text6377"
       sodipodi:linespacing="125%"><tspan
         sodipodi:role="line"
         id="tspan6379"
         x="587.37964"
         y="324.23383">M</tspan></text>
    <text
       xml:space="preserve"
       style="font-size:11px;font-style:normal;font-variant:normal;font-weight:normal;font-stretch:normal;line-height:125%;letter-spacing:0px;word-spacing:0px;fill:#000000;fill-opacity:1;stroke:none;font-family:Bitstream Charter;-inkscape-font-specification:Bitstream Charter"
       x="473.19348"
       y="352.50848"
       id="text6381"
       sodipodi:linespacing="125%"><tspan
         sodipodi:role="line"
         id="tspan6383"
         x="473.19348"
         y="352.50848">Proiezione della forza centripeta</tspan><tspan
         sodipodi:role="line"
         x="473.19348"
         y="366.25848"
         id="tspan6385">lungo il diametro </tspan></text>
    <path
       style="fill:none;stroke:#000000;stroke-width:1px;stroke-linecap:butt;stroke-linejoin:miter;stroke-opacity:1;marker-end:url(#Arrow1Mend)"
       d="m 496.48909,343.66891 18.25858,-14.5036"
       id="path6387"
       inkscape:connector-curvature="0" />
    <text
       xml:space="preserve"
       style="font-size:11px;font-style:normal;font-variant:normal;font-weight:normal;font-stretch:normal;line-height:125%;letter-spacing:0px;word-spacing:0px;fill:#000000;fill-opacity:1;stroke:none;font-family:Bitstream Charter;-inkscape-font-specification:Bitstream Charter"
       x="110.23026"
       y="633.66254"
       id="text6577"
       sodipodi:linespacing="125%"><tspan
         sodipodi:role="line"
         id="tspan6579"
         x="110.23026"
         y="633.66254">L'osservatore vede unicamente la proiezione del moto della massa</tspan><tspan
         sodipodi:role="line"
         x="110.23026"
         y="647.41254"
         id="tspan6581">M lungo l'asse delle x</tspan></text>
    <path
       sodipodi:type="arc"
       style="fill:#ffc7ec;fill-opacity:1;stroke:none"
       id="path6861"
       sodipodi:cx="408.08835"
       sodipodi:cy="676.90253"
       sodipodi:rx="39.522068"
       sodipodi:ry="34.466919"
       d="m 447.61042,676.90253 a 39.522068,34.466919 0 1 1 -79.04414,0 39.522068,34.466919 0 1 1 79.04414,0 z"
       transform="translate(18.684173,30.250565)" />
    <path
       style="fill:#cf8856;fill-opacity:1;stroke:none"
       d="m 388.16956,703.93617 c 3.67647,-4.59559 8.27206,-10.11029 8.27206,-10.11029 l 4.59559,6.43382 22.05883,-13.78677 6.43383,15.62501 11.02941,-5.51471 0.91912,5.51471 8.27206,-9.19118 2.75735,11.94853 11.94854,-1.83823 1.83823,8.27206 -8.27206,18.38235 -11.02941,10.1103 c 0,0 -9.19118,3.67647 -14.70589,5.51471 -5.51471,1.83823 -14.70588,-1.83823 -22.05883,-3.67647 -7.35294,-1.83824 -16.54412,-14.70589 -16.54412,-14.70589 l -7.35294,-15.62501 z"
       id="path6863"
       inkscape:connector-curvature="0"
       sodipodi:nodetypes="cccccccccccccssccc" />
    <path
       sodipodi:type="arc"
       style="fill:#ffc7ec;fill-opacity:1;stroke:none"
       id="path6865"
       sodipodi:cx="409.00745"
       sodipodi:cy="647.95032"
       sodipodi:rx="6.433825"
       sodipodi:ry="10.110297"
       d="m 415.44127,647.95032 a 6.433825,10.110297 0 1 1 -12.86765,0 6.433825,10.110297 0 1 1 12.86765,0 z"
       transform="translate(20.522408,26.574094)" />
    <path
       style="fill:none;stroke:#b36a3c;stroke-width:1px;stroke-linecap:butt;stroke-linejoin:miter;stroke-opacity:1"
       d="m 403.33501,685.55382 c 0.45955,-2.75736 10.1103,-8.27206 13.32721,-0.91912"
       id="path6867"
       inkscape:connector-curvature="0"
       sodipodi:nodetypes="cc" />
    <path
       style="fill:#ffffff;fill-opacity:0;stroke:#996d35;stroke-width:1px;stroke-linecap:butt;stroke-linejoin:miter;stroke-opacity:1"
       d="m 450.89935,685.54986 c -0.45955,-2.75736 -10.1103,-8.27206 -13.32721,-0.91912"
       id="path6867-2"
       inkscape:connector-curvature="0"
       sodipodi:nodetypes="cc" />
    <path
       sodipodi:type="arc"
       style="fill:#c87979;fill-opacity:0;stroke:none"
       id="path6887"
       sodipodi:cx="403.93402"
       sodipodi:cy="716.04706"
       sodipodi:rx="72.06752"
       sodipodi:ry="19.573895"
       d="m 476.00154,716.04706 a 72.06752,19.573895 0 1 1 -144.13504,0 72.06752,19.573895 0 1 1 144.13504,0 z"
       transform="translate(17.79445,-1.779445)" />
    <path
       inkscape:connector-curvature="0"
       id="path3596"
       style="fill:none;stroke:#000000;stroke-width:3.27786493;stroke-linecap:butt;stroke-linejoin:miter;stroke-miterlimit:4;stroke-opacity:1;stroke-dasharray:none"
       d="m 431.04728,390.63488 13.27794,0 c 0,0 7.34912,15.84994 14.66107,15.84994 19.81016,0 21.38673,-27.63031 10.31807,-27.63031 -11.06864,0 -2.33805,27.63031 10.3181,27.63031 12.65612,0 22.30991,-27.63031 10.31808,-27.63031 -11.71525,0 -2.33706,27.63031 10.31806,27.63031 12.67628,0 25.66434,-27.63031 10.31808,-27.63031 -15.07025,0 -3.13984,27.63031 10.31808,27.63031 14.28781,0 23.70429,-27.63031 10.31808,-27.63031 -13.939,0 -3.14127,27.63031 10.31809,27.63031 13.73595,0 25.36277,-27.63031 10.31807,-27.63031 -14.76825,0 -2.33258,27.63031 10.31809,27.63031 7.70482,0 11.61818,-15.63576 11.61818,-15.63576 l 15.21433,0"
       inkscape:export-filename="/home/mosa/Sources/Scuola/paschini_tolmezzo/lezioni/immagini/pontenziale_molla.png"
       inkscape:export-xdpi="300"
       inkscape:export-ydpi="300" />
    <rect
       transform="matrix(0.73688912,0.67601363,-0.67601363,0.73688912,0,0)"
       y="-126.79001"
       x="691.82831"
       height="23.101604"
       width="25.240643"
       id="rect6314-9-8"
       style="fill:#ffffff;fill-opacity:1;stroke:#0ea000;stroke-width:1;stroke-miterlimit:4;stroke-opacity:1;stroke-dasharray:6.00000002, 1;stroke-dashoffset:0" />
    <text
       xml:space="preserve"
       style="font-size:11px;font-style:normal;font-variant:normal;font-weight:normal;font-stretch:normal;line-height:125%;letter-spacing:0px;word-spacing:0px;fill:#000000;fill-opacity:1;stroke:none;font-family:Bitstream Charter;-inkscape-font-specification:Bitstream Charter"
       x="592.29791"
       y="394.29303"
       id="text6377-7"
       sodipodi:linespacing="125%"><tspan
         sodipodi:role="line"
         id="tspan6379-0"
         x="592.29791"
         y="394.29303">M</tspan></text>
    <text
       xml:space="preserve"
       style="font-size:29.56351089px;font-style:normal;font-variant:normal;font-weight:normal;font-stretch:normal;line-height:125%;letter-spacing:0px;word-spacing:0px;fill:#000000;fill-opacity:1;stroke:none;font-family:Bitstream Charter;-inkscape-font-specification:Bitstream Charter"
       x="445.99234"
       y="84.344055"
       id="text4855"
       sodipodi:linespacing="125%"><tspan
         sodipodi:role="line"
         id="tspan4857"
         x="445.99234"
         y="84.344055">Y</tspan></text>
    <text
       xml:space="preserve"
       style="font-size:29.56351089px;font-style:normal;font-variant:normal;font-weight:normal;font-stretch:normal;line-height:125%;letter-spacing:0px;word-spacing:0px;fill:#000000;fill-opacity:1;stroke:none;font-family:Bitstream Charter;-inkscape-font-specification:Bitstream Charter"
       x="702.10797"
       y="347.83356"
       id="text4855-3"
       sodipodi:linespacing="125%"><tspan
         sodipodi:role="line"
         id="tspan4857-0"
         x="702.10797"
         y="347.83356">X</tspan></text>
  </g>
</svg>
