<?xml version="1.0" encoding="UTF-8" standalone="no"?>
<!-- Created with Inkscape (http://www.inkscape.org/) -->
<svg
   xmlns:dc="http://purl.org/dc/elements/1.1/"
   xmlns:cc="http://creativecommons.org/ns#"
   xmlns:rdf="http://www.w3.org/1999/02/22-rdf-syntax-ns#"
   xmlns:svg="http://www.w3.org/2000/svg"
   xmlns="http://www.w3.org/2000/svg"
   xmlns:xlink="http://www.w3.org/1999/xlink"
   xmlns:sodipodi="http://sodipodi.sourceforge.net/DTD/sodipodi-0.dtd"
   xmlns:inkscape="http://www.inkscape.org/namespaces/inkscape"
   width="183.57587"
   height="194.528"
   id="svg10029"
   sodipodi:version="0.32"
   inkscape:version="0.45+devel"
   version="1.0"
   sodipodi:docname="cyber_eye.svg"
   inkscape:output_extension="org.inkscape.output.svg.inkscape">
  <defs
     id="defs10031">
    <linearGradient
       id="linearGradient2751"
       inkscape:collect="always">
      <stop
         id="stop2753"
         offset="0"
         style="stop-color:#000000;stop-opacity:1" />
      <stop
         id="stop2755"
         offset="1"
         style="stop-color:#000000;stop-opacity:0" />
    </linearGradient>
    <radialGradient
       inkscape:collect="always"
       xlink:href="#linearGradient2751"
       id="radialGradient9946"
       gradientUnits="userSpaceOnUse"
       gradientTransform="matrix(1,0,0,0.2746188,0,281.38604)"
       cx="229.84126"
       cy="387.9147"
       fx="229.84126"
       fy="387.9147"
       r="133.26984" />
    <linearGradient
       inkscape:collect="always"
       xlink:href="#linearGradient3355"
       id="linearGradient9944"
       gradientUnits="userSpaceOnUse"
       x1="519.21484"
       y1="307.18793"
       x2="519.21484"
       y2="269.34174" />
    <linearGradient
       id="linearGradient4282"
       inkscape:collect="always">
      <stop
         id="stop4284"
         offset="0"
         style="stop-color:#ffffff;stop-opacity:1;" />
      <stop
         id="stop4286"
         offset="1"
         style="stop-color:#ffffff;stop-opacity:0;" />
    </linearGradient>
    <linearGradient
       inkscape:collect="always"
       xlink:href="#linearGradient4282"
       id="linearGradient9942"
       gradientUnits="userSpaceOnUse"
       gradientTransform="matrix(0.8202273,0,0,0.8785999,-93.538451,10.467138)"
       x1="539.93921"
       y1="293.18478"
       x2="539.85809"
       y2="302.68021" />
    <linearGradient
       inkscape:collect="always"
       id="linearGradient3367">
      <stop
         id="stop3369"
         style="stop-color:#ffffff;stop-opacity:1"
         offset="0" />
      <stop
         id="stop3371"
         style="stop-color:#ffffff;stop-opacity:0"
         offset="1" />
    </linearGradient>
    <linearGradient
       inkscape:collect="always"
       xlink:href="#linearGradient3367"
       id="linearGradient9940"
       gradientUnits="userSpaceOnUse"
       gradientTransform="matrix(0.8026799,0,0,0.8598039,-84.032695,15.865568)"
       x1="535.01727"
       y1="287.87656"
       x2="535.01727"
       y2="299.06873" />
    <linearGradient
       inkscape:collect="always"
       id="linearGradient3335">
      <stop
         id="stop3337"
         style="stop-color:#000000;stop-opacity:1"
         offset="0" />
      <stop
         id="stop3339"
         style="stop-color:#000000;stop-opacity:1"
         offset="0.70884585" />
      <stop
         id="stop3341"
         style="stop-color:#4c5a0b;stop-opacity:0"
         offset="1" />
    </linearGradient>
    <radialGradient
       inkscape:collect="always"
       xlink:href="#linearGradient3335"
       id="radialGradient9938"
       gradientUnits="userSpaceOnUse"
       gradientTransform="matrix(1,0,0,1.0084033,0,-2.5178221)"
       cx="534.24103"
       cy="299.62393"
       fx="534.24103"
       fy="299.62393"
       r="13.37007" />
    <linearGradient
       inkscape:collect="always"
       id="linearGradient3355">
      <stop
         id="stop3357"
         style="stop-color:#ffffff;stop-opacity:1"
         offset="0" />
      <stop
         id="stop3363"
         style="stop-color:#e9f1c8;stop-opacity:0.23426573"
         offset="0.66958195" />
      <stop
         id="stop3359"
         style="stop-color:#e0ebb4;stop-opacity:0.02054795"
         offset="1" />
    </linearGradient>
    <linearGradient
       inkscape:collect="always"
       xlink:href="#linearGradient3355"
       id="linearGradient9936"
       gradientUnits="userSpaceOnUse"
       x1="519.21484"
       y1="307.18793"
       x2="519.21484"
       y2="269.34174" />
    <linearGradient
       id="linearGradient2828"
       inkscape:collect="always">
      <stop
         offset="0"
         style="stop-color:#5599ff;stop-opacity:1"
         id="stop2830" />
      <stop
         offset="0.93834358"
         style="stop-color:#003380;stop-opacity:1"
         id="stop2833" />
      <stop
         offset="1"
         style="stop-color:#aaccff;stop-opacity:0"
         id="stop2835" />
    </linearGradient>
    <radialGradient
       inkscape:collect="always"
       xlink:href="#linearGradient2828"
       id="radialGradient9934"
       gradientUnits="userSpaceOnUse"
       gradientTransform="matrix(1,0,0,1.0084033,0,-2.5178221)"
       cx="534.24103"
       cy="299.62393"
       fx="534.24103"
       fy="299.62393"
       r="13.37007" />
    <linearGradient
       id="linearGradient2795"
       inkscape:collect="always">
      <stop
         id="stop2797"
         offset="0"
         style="stop-color:#242424;stop-opacity:1;" />
      <stop
         id="stop2799"
         offset="1"
         style="stop-color:#242424;stop-opacity:0;" />
    </linearGradient>
    <linearGradient
       inkscape:collect="always"
       xlink:href="#linearGradient2795"
       id="linearGradient9932"
       gradientUnits="userSpaceOnUse"
       x1="115.32519"
       y1="219.44817"
       x2="152.40547"
       y2="219.44817" />
    <linearGradient
       id="linearGradient2779"
       inkscape:collect="always">
      <stop
         id="stop2781"
         offset="0"
         style="stop-color:#242424;stop-opacity:1;" />
      <stop
         id="stop2783"
         offset="1"
         style="stop-color:#242424;stop-opacity:0;" />
    </linearGradient>
    <linearGradient
       inkscape:collect="always"
       xlink:href="#linearGradient2779"
       id="linearGradient9930"
       gradientUnits="userSpaceOnUse"
       x1="179.9216"
       y1="241.67354"
       x2="140.58614"
       y2="241.03708" />
    <linearGradient
       id="linearGradient2803"
       inkscape:collect="always">
      <stop
         id="stop2805"
         offset="0"
         style="stop-color:#242424;stop-opacity:1;" />
      <stop
         id="stop2807"
         offset="1"
         style="stop-color:#242424;stop-opacity:0;" />
    </linearGradient>
    <linearGradient
       inkscape:collect="always"
       xlink:href="#linearGradient2803"
       id="linearGradient9928"
       gradientUnits="userSpaceOnUse"
       x1="115.20157"
       y1="219.44817"
       x2="189.60938"
       y2="219.44817" />
    <linearGradient
       id="linearGradient2787"
       inkscape:collect="always">
      <stop
         id="stop2789"
         offset="0"
         style="stop-color:#242424;stop-opacity:1;" />
      <stop
         id="stop2791"
         offset="1"
         style="stop-color:#242424;stop-opacity:0;" />
    </linearGradient>
    <linearGradient
       inkscape:collect="always"
       xlink:href="#linearGradient2787"
       id="linearGradient9926"
       gradientUnits="userSpaceOnUse"
       x1="115.34775"
       y1="219.44817"
       x2="163.4351"
       y2="219.44817" />
    <linearGradient
       id="linearGradient2731"
       inkscape:collect="always">
      <stop
         id="stop2733"
         offset="0"
         style="stop-color:#ffffff;stop-opacity:1" />
      <stop
         id="stop2735"
         offset="1"
         style="stop-color:#000000;stop-opacity:1" />
    </linearGradient>
    <radialGradient
       inkscape:collect="always"
       xlink:href="#linearGradient2731"
       id="radialGradient9924"
       gradientUnits="userSpaceOnUse"
       gradientTransform="matrix(-1.7465339,0.2054896,-0.1796779,-1.4610311,444.05226,697.22177)"
       cx="115.42191"
       cy="323.31168"
       fx="115.42191"
       fy="323.31168"
       r="88.529953" />
    <linearGradient
       id="linearGradient2739"
       inkscape:collect="always">
      <stop
         id="stop2741"
         offset="0"
         style="stop-color:#ffffff;stop-opacity:1" />
      <stop
         style="stop-color:#ffffff;stop-opacity:1"
         offset="0.34251001"
         id="stop2832" />
      <stop
         style="stop-color:#cfcfcf;stop-opacity:0"
         offset="0.60124648"
         id="stop2747" />
      <stop
         id="stop2743"
         offset="1"
         style="stop-color:#000000;stop-opacity:1" />
    </linearGradient>
    <radialGradient
       inkscape:collect="always"
       xlink:href="#linearGradient2739"
       id="radialGradient9922"
       gradientUnits="userSpaceOnUse"
       gradientTransform="matrix(-1.7465339,0.2054896,-0.1796779,-1.4610311,444.05226,697.22177)"
       cx="115.42191"
       cy="323.31168"
       fx="115.42191"
       fy="323.31168"
       r="88.529953" />
  </defs>
  <sodipodi:namedview
     id="base"
     pagecolor="#ffffff"
     bordercolor="#666666"
     borderopacity="1.0"
     inkscape:pageopacity="0.0"
     inkscape:pageshadow="2"
     inkscape:zoom="0.35"
     inkscape:cx="375"
     inkscape:cy="62.857143"
     inkscape:document-units="px"
     inkscape:current-layer="layer1"
     inkscape:window-width="640"
     inkscape:window-height="687"
     inkscape:window-x="100"
     inkscape:window-y="110" />
  <metadata
     id="metadata10034">
    <rdf:RDF>
      <cc:Work
         rdf:about="">
        <dc:format>image/svg+xml</dc:format>
        <dc:type
           rdf:resource="http://purl.org/dc/dcmitype/StillImage" />
      </cc:Work>
    </rdf:RDF>
  </metadata>
  <g
     inkscape:label="Livello 1"
     inkscape:groupmode="layer"
     id="layer1"
     transform="translate(-228.21206,-169.38392)">
    <g
       id="g9904"
       transform="matrix(1.8815352,0,0,1.8815352,-304.54984,-1198.2265)">
      <g
         transform="matrix(1.8086095,0,0,1.8086095,-285.30237,273.55788)"
         id="g9820">
        <path
           sodipodi:type="arc"
           style="fill:#ffffff;fill-opacity:1;fill-rule:nonzero;stroke:none;stroke-width:0.15464294;stroke-linecap:butt;stroke-linejoin:miter;stroke-miterlimit:2.9000001;stroke-dasharray:none;stroke-dashoffset:0.95679992;stroke-opacity:1"
           id="path9822"
           sodipodi:cx="147.07822"
           sodipodi:cy="290.93005"
           sodipodi:rx="88.452629"
           sodipodi:ry="86.909851"
           d="M 235.53085,290.93005 A 88.452629,86.909851 0 1 1 58.625587,290.93005 A 88.452629,86.909851 0 1 1 235.53085,290.93005 z"
           transform="matrix(0.2386063,0,0,0.2441233,305.66145,200.82896)" />
        <path
           sodipodi:type="arc"
           style="fill:url(#radialGradient9922);fill-opacity:1;fill-rule:nonzero;stroke:url(#radialGradient9924);stroke-width:0.24351589;stroke-linecap:butt;stroke-linejoin:miter;stroke-miterlimit:2.9000001;stroke-dasharray:none;stroke-dashoffset:0.95679992;stroke-opacity:1"
           id="path9824"
           sodipodi:cx="147.07822"
           sodipodi:cy="290.93005"
           sodipodi:rx="88.452629"
           sodipodi:ry="86.909851"
           d="M 235.53085,290.93005 A 88.452629,86.909851 0 1 1 58.625587,290.93005 A 88.452629,86.909851 0 1 1 235.53085,290.93005 z"
           transform="matrix(0.2386063,0,0,0.2441233,305.4305,201.11753)" />
        <path
           sodipodi:type="arc"
           style="opacity:0.75097273;fill:none;fill-opacity:1;fill-rule:nonzero;stroke:url(#linearGradient9926);stroke-width:0.35286275;stroke-linecap:butt;stroke-linejoin:miter;stroke-miterlimit:2.9000001;stroke-dasharray:none;stroke-dashoffset:0.95679992;stroke-opacity:1"
           id="path9826"
           sodipodi:cx="152.40547"
           sodipodi:cy="219.44817"
           sodipodi:rx="36.946781"
           sodipodi:ry="115.45868"
           d="M 189.35225,219.44817 A 36.946781,115.45868 0 1 1 115.45869,219.44817 A 36.946781,115.45868 0 1 1 189.35225,219.44817 z"
           transform="matrix(-0.1515692,0,0,0.1830303,363.17683,231.90879)" />
        <path
           sodipodi:type="arc"
           style="opacity:0.64591435;fill:none;fill-opacity:1;fill-rule:nonzero;stroke:url(#linearGradient9928);stroke-width:0.80977976;stroke-linecap:butt;stroke-linejoin:miter;stroke-miterlimit:2.9000001;stroke-dasharray:none;stroke-dashoffset:0.95679992;stroke-opacity:1"
           id="path9828"
           sodipodi:cx="152.40547"
           sodipodi:cy="219.44817"
           sodipodi:rx="36.946781"
           sodipodi:ry="115.45868"
           d="M 189.35225,219.44817 A 36.946781,115.45868 0 1 1 115.45869,219.44817 A 36.946781,115.45868 0 1 1 189.35225,219.44817 z"
           transform="matrix(-6.5291367e-2,0,0,8.0678166e-2,332.00229,254.4216)" />
        <path
           sodipodi:type="arc"
           style="opacity:0.46692607;fill:none;fill-opacity:1;fill-rule:nonzero;stroke:url(#linearGradient9930);stroke-width:0.42046168;stroke-linecap:butt;stroke-linejoin:miter;stroke-miterlimit:2.9000001;stroke-dasharray:none;stroke-dashoffset:0.95679992;stroke-opacity:1"
           id="path9830"
           sodipodi:cx="152.40547"
           sodipodi:cy="219.44817"
           sodipodi:rx="36.946781"
           sodipodi:ry="115.45868"
           d="M 189.35225,219.44817 A 36.946781,115.45868 0 1 1 115.45869,219.44817 A 36.946781,115.45868 0 1 1 189.35225,219.44817 z"
           transform="matrix(0.1259191,0,0,0.1551677,310.76185,237.91651)" />
        <path
           sodipodi:type="arc"
           style="opacity:0.68093381;fill:none;fill-opacity:1;fill-rule:nonzero;stroke:url(#linearGradient9932);stroke-width:0.42046168;stroke-linecap:butt;stroke-linejoin:miter;stroke-miterlimit:2.9000001;stroke-dasharray:none;stroke-dashoffset:0.95679992;stroke-opacity:1"
           id="path9832"
           sodipodi:cx="152.40547"
           sodipodi:cy="219.44817"
           sodipodi:rx="36.946781"
           sodipodi:ry="115.45868"
           d="M 189.35225,219.44817 A 36.946781,115.45868 0 1 1 115.45869,219.44817 A 36.946781,115.45868 0 1 1 189.35225,219.44817 z"
           transform="matrix(-0.1259191,0,0,0.1551677,370.27609,238.07139)" />
        <path
           style="fill:url(#radialGradient9934);fill-opacity:1;fill-rule:evenodd;stroke:none;stroke-width:0.99921262;stroke-linecap:round;stroke-linejoin:round;stroke-miterlimit:4;stroke-dasharray:none;stroke-dashoffset:0.95679992;stroke-opacity:1"
           sodipodi:cx="534.24103"
           sodipodi:cy="299.62393"
           sodipodi:type="arc"
           transform="matrix(0.7594711,0,0,0.7914296,-60.259631,36.153988)"
           d="M 547.6111,299.62393 A 13.37007,13.482423 0 1 1 520.87096,299.62393 A 13.37007,13.482423 0 1 1 547.6111,299.62393 z"
           sodipodi:rx="13.37007"
           id="path9834"
           sodipodi:ry="13.482423" />
        <path
           sodipodi:type="star"
           sodipodi:arg2="0.87877369"
           sodipodi:cx="519.21484"
           sodipodi:cy="282.3063"
           sodipodi:arg1="0.80023387"
           style="fill:url(#linearGradient9936);fill-opacity:1;fill-rule:evenodd;stroke:none;stroke-width:0.99921262;stroke-linecap:round;stroke-linejoin:round;stroke-miterlimit:4;stroke-dasharray:none;stroke-dashoffset:0.95679992;stroke-opacity:1"
           transform="matrix(0.3762007,0,0,0.3974431,150.30837,160.45725)"
           sodipodi:r2="9.6651878"
           sodipodi:sides="40"
           inkscape:randomized="0"
           d="M 537.13369,300.76488 L 525.38216,289.74808 L 534.02553,303.34075 L 524.14208,290.62124 L 530.55267,305.39868 L 522.78067,291.28966 L 526.80064,306.888 L 521.33147,291.73688 L 522.86182,307.77204 L 519.83014,291.95189 L 518.8332,308.02903 L 518.31366,291.92939 L 514.81398,307.65264 L 516.81938,291.66994 L 510.90312,306.65213 L 515.38407,291.17992 L 507.19693,305.05216 L 514.0431,290.47141 L 503.78665,302.8921 L 512.82947,289.56184 L 500.75627,300.22515 L 511.77307,288.47362 L 498.1804,297.11699 L 510.89991,287.23354 L 496.12247,293.64413 L 510.23149,285.87213 L 494.63315,289.8921 L 509.78427,284.42293 L 493.74911,285.95328 L 509.56926,282.9216 L 493.49212,281.92466 L 509.59176,281.40512 L 493.86851,277.90544 L 509.85121,279.91084 L 494.86902,273.99458 L 510.34123,278.47553 L 496.46899,270.28839 L 511.04974,277.13456 L 498.62905,266.87811 L 511.95931,275.92093 L 501.29599,263.84773 L 513.04753,274.86453 L 504.40416,261.27186 L 514.28761,273.99137 L 507.87702,259.21393 L 515.64901,273.32295 L 511.62905,257.72461 L 517.09822,272.87573 L 515.56787,256.84057 L 518.59955,272.66072 L 519.59649,256.58358 L 520.11602,272.68322 L 523.61571,256.95997 L 521.61031,272.94267 L 527.52657,257.96048 L 523.04561,273.43269 L 531.23276,259.56045 L 524.38659,274.1412 L 534.64304,261.72051 L 525.60022,275.05077 L 537.67342,264.38746 L 526.65662,276.13899 L 540.24929,267.49562 L 527.52978,277.37907 L 542.30722,270.96848 L 528.1982,278.74047 L 543.79654,274.72051 L 528.64542,280.18968 L 544.68058,278.65933 L 528.86043,281.69101 L 544.93757,282.68795 L 528.83793,283.20749 L 544.56117,286.70717 L 528.57847,284.70177 L 543.56067,290.61803 L 528.08846,286.13708 L 541.9607,294.32422 L 527.37995,287.47805 L 539.80064,297.7345 L 526.47038,288.69168 L 537.13369,300.76488 z"
           inkscape:rounded="0"
           sodipodi:r1="25.725554"
           inkscape:flatsided="false"
           id="path9836" />
        <path
           style="fill:url(#radialGradient9938);fill-opacity:1;fill-rule:evenodd;stroke:none;stroke-width:0.99921262;stroke-linecap:round;stroke-linejoin:round;stroke-miterlimit:4;stroke-dasharray:none;stroke-dashoffset:0.95679992;stroke-opacity:1;display:inline"
           sodipodi:cx="534.24103"
           sodipodi:cy="299.62393"
           sodipodi:type="arc"
           transform="matrix(0.2697169,0,0,0.286504,201.19267,187.23078)"
           d="M 547.6111,299.62393 A 13.37007,13.482423 0 1 1 520.87096,299.62393 A 13.37007,13.482423 0 1 1 547.6111,299.62393 z"
           sodipodi:rx="13.37007"
           id="path9838"
           sodipodi:ry="13.482423" />
        <path
           style="fill:url(#linearGradient9940);fill-opacity:1;fill-rule:evenodd;stroke:none;stroke-width:1px;stroke-linecap:butt;stroke-linejoin:miter;stroke-opacity:1"
           id="path9840"
           sodipodi:nodetypes="ccczzczcc"
           d="M 345.62075,273.00601 C 342.46621,272.87364 341.46061,270.18102 336.62967,271.03036 C 336.72347,269.7673 337.87791,267.157 338.62915,267.49004 C 338.09141,266.8691 339.69422,265.53621 340.35541,265.04741 C 342.0389,263.80283 344.25911,263.40343 345.66922,263.38325 C 347.14591,263.36307 350.76397,264.29729 350.4009,265.61477 C 351.2146,264.57281 352.88688,267.13738 353.40673,267.95721 C 353.92659,268.77705 354.37575,269.78005 354.132,269.91662 C 349.28064,270.26399 348.0628,271.29398 345.62075,273.00601 z" />
        <path
           style="opacity:0.92123287;fill:url(#linearGradient9942);fill-opacity:1;fill-rule:evenodd;stroke:none;stroke-width:1px;stroke-linecap:butt;stroke-linejoin:miter;stroke-opacity:1"
           d="M 345.67322,271.83846 C 347.42058,271.52676 348.30777,269.57758 349.66727,268.84365 C 350.33016,269.23582 350.90986,270.12712 351.19831,270.98279 C 351.48678,271.83844 351.4313,273.00309 351.39802,273.9776 C 351.36473,274.9521 351.30926,276.40195 350.99862,276.82978 C 350.68798,277.2576 349.85587,277.04369 349.53413,276.54456 C 349.21238,276.04543 349.3788,274.54803 349.06816,273.83499 C 348.7575,273.12193 348.23608,272.59903 347.67023,272.26628 C 347.10442,271.93351 345.97277,272.10584 345.67322,271.83846 z"
           id="path9842"
           sodipodi:nodetypes="ccssssssc" />
        <path
           sodipodi:type="star"
           sodipodi:arg2="0.87877369"
           sodipodi:cx="519.21484"
           sodipodi:cy="282.3063"
           sodipodi:arg1="0.80023387"
           style="opacity:0.46232874;fill:url(#linearGradient9944);fill-opacity:1;fill-rule:evenodd;stroke:none;stroke-width:0.99921262;stroke-linecap:round;stroke-linejoin:round;stroke-miterlimit:4;stroke-dasharray:none;stroke-dashoffset:0.95679992;stroke-opacity:1;display:inline"
           transform="matrix(0.3756174,2.2433598e-2,-2.0655726e-2,0.3968268,156.39148,149.0376)"
           sodipodi:r2="9.6651878"
           sodipodi:sides="40"
           inkscape:randomized="0"
           d="M 537.13369,300.76488 L 525.38216,289.74808 L 534.02553,303.34075 L 524.14208,290.62124 L 530.55267,305.39868 L 522.78067,291.28966 L 526.80064,306.888 L 521.33147,291.73688 L 522.86182,307.77204 L 519.83014,291.95189 L 518.8332,308.02903 L 518.31366,291.92939 L 514.81398,307.65264 L 516.81938,291.66994 L 510.90312,306.65213 L 515.38407,291.17992 L 507.19693,305.05216 L 514.0431,290.47141 L 503.78665,302.8921 L 512.82947,289.56184 L 500.75627,300.22515 L 511.77307,288.47362 L 498.1804,297.11699 L 510.89991,287.23354 L 496.12247,293.64413 L 510.23149,285.87213 L 494.63315,289.8921 L 509.78427,284.42293 L 493.74911,285.95328 L 509.56926,282.9216 L 493.49212,281.92466 L 509.59176,281.40512 L 493.86851,277.90544 L 509.85121,279.91084 L 494.86902,273.99458 L 510.34123,278.47553 L 496.46899,270.28839 L 511.04974,277.13456 L 498.62905,266.87811 L 511.95931,275.92093 L 501.29599,263.84773 L 513.04753,274.86453 L 504.40416,261.27186 L 514.28761,273.99137 L 507.87702,259.21393 L 515.64901,273.32295 L 511.62905,257.72461 L 517.09822,272.87573 L 515.56787,256.84057 L 518.59955,272.66072 L 519.59649,256.58358 L 520.11602,272.68322 L 523.61571,256.95997 L 521.61031,272.94267 L 527.52657,257.96048 L 523.04561,273.43269 L 531.23276,259.56045 L 524.38659,274.1412 L 534.64304,261.72051 L 525.60022,275.05077 L 537.67342,264.38746 L 526.65662,276.13899 L 540.24929,267.49562 L 527.52978,277.37907 L 542.30722,270.96848 L 528.1982,278.74047 L 543.79654,274.72051 L 528.64542,280.18968 L 544.68058,278.65933 L 528.86043,281.69101 L 544.93757,282.68795 L 528.83793,283.20749 L 544.56117,286.70717 L 528.57847,284.70177 L 543.56067,290.61803 L 528.08846,286.13708 L 541.9607,294.32422 L 527.37995,287.47805 L 539.80064,297.7345 L 526.47038,288.69168 L 537.13369,300.76488 z"
           inkscape:rounded="0"
           sodipodi:r1="25.725554"
           inkscape:flatsided="false"
           id="path9844" />
        <path
           style="opacity:0.59533069;fill:none;fill-rule:evenodd;stroke:#000000;stroke-width:0.05877233;stroke-linecap:butt;stroke-linejoin:miter;stroke-miterlimit:4;stroke-dasharray:none;stroke-opacity:1"
           d="M 324.41194,272.8455 C 328.09436,273.04892 331.14948,273.18053 334.51824,273.13268"
           id="path9846"
           sodipodi:nodetypes="cc" />
        <path
           style="opacity:0.52140078;fill:none;fill-rule:evenodd;stroke:#000000;stroke-width:0.05877233;stroke-linecap:butt;stroke-linejoin:miter;stroke-miterlimit:4;stroke-dasharray:none;stroke-opacity:1"
           d="M 355.73379,272.89706 C 358.89558,272.69866 361.24345,272.64122 361.65042,272.25484 C 361.65042,272.25484 361.65042,272.25484 361.65042,272.25484"
           id="path9848"
           sodipodi:nodetypes="ccc" />
      </g>
      <path
         transform="matrix(0.3663257,0,0,0.3663257,247.73954,674.77329)"
         d="M 363.01109,387.9147 A 133.16983,36.498398 0 1 1 96.671432,387.9147 A 133.16983,36.498398 0 1 1 363.01109,387.9147 z"
         sodipodi:ry="36.498398"
         sodipodi:rx="133.16983"
         sodipodi:cy="387.9147"
         sodipodi:cx="229.84126"
         id="path9850"
         style="opacity:0.35;fill:url(#radialGradient9946);fill-opacity:1;fill-rule:nonzero;stroke:none;stroke-width:0.2;stroke-linecap:butt;stroke-linejoin:miter;stroke-miterlimit:2.9000001;stroke-dasharray:none;stroke-dashoffset:0.95679992;stroke-opacity:1"
         sodipodi:type="arc" />
    </g>
  </g>
</svg>
