<?xml version="1.0" encoding="UTF-8" standalone="no"?>
<!-- Created with Inkscape (http://www.inkscape.org/) -->

<svg
   xmlns:dc="http://purl.org/dc/elements/1.1/"
   xmlns:cc="http://creativecommons.org/ns#"
   xmlns:rdf="http://www.w3.org/1999/02/22-rdf-syntax-ns#"
   xmlns:svg="http://www.w3.org/2000/svg"
   xmlns="http://www.w3.org/2000/svg"
   xmlns:sodipodi="http://sodipodi.sourceforge.net/DTD/sodipodi-0.dtd"
   xmlns:inkscape="http://www.inkscape.org/namespaces/inkscape"
   width="1052.3622"
   height="744.09448"
   id="svg2"
   version="1.1"
   inkscape:version="0.48.1 r9760"
   sodipodi:docname="imbuto.svg"
   inkscape:export-filename="/home/mosa/Sources/Scuola/paschini_tolmezzo/lezioni/laboratorio/esercitazione_qm/scheda/immagini/imbuto.png"
   inkscape:export-xdpi="300"
   inkscape:export-ydpi="300">
  <sodipodi:namedview
     id="base"
     pagecolor="#ffffff"
     bordercolor="#666666"
     borderopacity="1.0"
     inkscape:pageopacity="0.0"
     inkscape:pageshadow="2"
     inkscape:zoom="1.5589117"
     inkscape:cx="353.60738"
     inkscape:cy="553.59531"
     inkscape:document-units="px"
     inkscape:current-layer="layer1"
     showgrid="false"
     inkscape:window-width="1280"
     inkscape:window-height="965"
     inkscape:window-x="0"
     inkscape:window-y="0"
     inkscape:window-maximized="1" />
  <defs
     id="defs4">
    <inkscape:path-effect
       effect="spiro"
       id="path-effect5105"
       is_visible="true" />
    <inkscape:path-effect
       effect="spiro"
       id="path-effect5097"
       is_visible="true" />
    <inkscape:path-effect
       effect="spiro"
       id="path-effect5093"
       is_visible="true" />
    <inkscape:path-effect
       effect="spiro"
       id="path-effect5089"
       is_visible="true" />
    <marker
       style="overflow:visible;"
       id="Arrow2Mend"
       refX="0.0"
       refY="0.0"
       orient="auto"
       inkscape:stockid="Arrow2Mend">
      <path
         transform="scale(0.6) rotate(180) translate(0,0)"
         d="M 8.7185878,4.0337352 L -2.2072895,0.016013256 L 8.7185884,-4.0017078 C 6.9730900,-1.6296469 6.9831476,1.6157441 8.7185878,4.0337352 z "
         style="font-size:12.0;fill-rule:evenodd;stroke-width:0.62500000;stroke-linejoin:round;"
         id="path4010" />
    </marker>
    <marker
       inkscape:stockid="Arrow1Lstart"
       orient="auto"
       refY="0.0"
       refX="0.0"
       id="Arrow1Lstart"
       style="overflow:visible">
      <path
         id="path5418"
         d="M 0.0,0.0 L 5.0,-5.0 L -12.5,0.0 L 5.0,5.0 L 0.0,0.0 z "
         style="fill-rule:evenodd;stroke:#000000;stroke-width:1.0pt;marker-start:none"
         transform="scale(0.8) translate(12.5,0)" />
    </marker>
    <marker
       inkscape:stockid="Arrow1Lend"
       orient="auto"
       refY="0.0"
       refX="0.0"
       id="Arrow1Lend"
       style="overflow:visible;">
      <path
         id="path5421"
         d="M 0.0,0.0 L 5.0,-5.0 L -12.5,0.0 L 5.0,5.0 L 0.0,0.0 z "
         style="fill-rule:evenodd;stroke:#000000;stroke-width:1.0pt;marker-start:none;"
         transform="scale(0.8) rotate(180) translate(12.5,0)" />
    </marker>
    <inkscape:perspective
       sodipodi:type="inkscape:persp3d"
       inkscape:vp_x="0 : 526.18109 : 1"
       inkscape:vp_y="0 : 1000 : 0"
       inkscape:vp_z="744.09448 : 526.18109 : 1"
       inkscape:persp3d-origin="372.04724 : 350.78739 : 1"
       id="perspective10" />
    <inkscape:perspective
       id="perspective3598"
       inkscape:persp3d-origin="0.5 : 0.33333333 : 1"
       inkscape:vp_z="1 : 0.5 : 1"
       inkscape:vp_y="0 : 1000 : 0"
       inkscape:vp_x="0 : 0.5 : 1"
       sodipodi:type="inkscape:persp3d" />
    <inkscape:perspective
       id="perspective5068"
       inkscape:persp3d-origin="0.5 : 0.33333333 : 1"
       inkscape:vp_z="1 : 0.5 : 1"
       inkscape:vp_y="0 : 1000 : 0"
       inkscape:vp_x="0 : 0.5 : 1"
       sodipodi:type="inkscape:persp3d" />
    <inkscape:perspective
       id="perspective5110"
       inkscape:persp3d-origin="0.5 : 0.33333333 : 1"
       inkscape:vp_z="1 : 0.5 : 1"
       inkscape:vp_y="0 : 1000 : 0"
       inkscape:vp_x="0 : 0.5 : 1"
       sodipodi:type="inkscape:persp3d" />
    <inkscape:perspective
       id="perspective5140"
       inkscape:persp3d-origin="0.5 : 0.33333333 : 1"
       inkscape:vp_z="1 : 0.5 : 1"
       inkscape:vp_y="0 : 1000 : 0"
       inkscape:vp_x="0 : 0.5 : 1"
       sodipodi:type="inkscape:persp3d" />
    <inkscape:perspective
       id="perspective5168"
       inkscape:persp3d-origin="0.5 : 0.33333333 : 1"
       inkscape:vp_z="1 : 0.5 : 1"
       inkscape:vp_y="0 : 1000 : 0"
       inkscape:vp_x="0 : 0.5 : 1"
       sodipodi:type="inkscape:persp3d" />
    <inkscape:perspective
       id="perspective5336"
       inkscape:persp3d-origin="0.5 : 0.33333333 : 1"
       inkscape:vp_z="1 : 0.5 : 1"
       inkscape:vp_y="0 : 1000 : 0"
       inkscape:vp_x="0 : 0.5 : 1"
       sodipodi:type="inkscape:persp3d" />
    <inkscape:perspective
       id="perspective5407"
       inkscape:persp3d-origin="0.5 : 0.33333333 : 1"
       inkscape:vp_z="1 : 0.5 : 1"
       inkscape:vp_y="0 : 1000 : 0"
       inkscape:vp_x="0 : 0.5 : 1"
       sodipodi:type="inkscape:persp3d" />
    <inkscape:perspective
       id="perspective5871"
       inkscape:persp3d-origin="0.5 : 0.33333333 : 1"
       inkscape:vp_z="1 : 0.5 : 1"
       inkscape:vp_y="0 : 1000 : 0"
       inkscape:vp_x="0 : 0.5 : 1"
       sodipodi:type="inkscape:persp3d" />
    <marker
       inkscape:stockid="Arrow1Lend"
       orient="auto"
       refY="0"
       refX="0"
       id="Arrow1Lend-0"
       style="overflow:visible">
      <path
         id="path5421-8"
         d="M 0,0 5,-5 -12.5,0 5,5 0,0 z"
         style="fill-rule:evenodd;stroke:#000000;stroke-width:1pt;marker-start:none"
         transform="matrix(-0.8,0,0,-0.8,-10,0)" />
    </marker>
    <inkscape:perspective
       id="perspective5913"
       inkscape:persp3d-origin="0.5 : 0.33333333 : 1"
       inkscape:vp_z="1 : 0.5 : 1"
       inkscape:vp_y="0 : 1000 : 0"
       inkscape:vp_x="0 : 0.5 : 1"
       sodipodi:type="inkscape:persp3d" />
    <inkscape:perspective
       id="perspective6912"
       inkscape:persp3d-origin="0.5 : 0.33333333 : 1"
       inkscape:vp_z="1 : 0.5 : 1"
       inkscape:vp_y="0 : 1000 : 0"
       inkscape:vp_x="0 : 0.5 : 1"
       sodipodi:type="inkscape:persp3d" />
    <marker
       style="overflow:visible"
       id="Arrow2Mend-4"
       refX="0"
       refY="0"
       orient="auto"
       inkscape:stockid="Arrow2Mend">
      <path
         inkscape:connector-curvature="0"
         transform="scale(-0.6,-0.6)"
         d="M 8.7185878,4.0337352 -2.2072895,0.01601326 8.7185884,-4.0017078 c -1.7454984,2.3720609 -1.7354408,5.6174519 -6e-7,8.035443 z"
         style="font-size:12px;fill-rule:evenodd;stroke-width:0.625;stroke-linejoin:round"
         id="path4010-8" />
    </marker>
  </defs>
  <metadata
     id="metadata7">
    <rdf:RDF>
      <cc:Work
         rdf:about="">
        <dc:format>image/svg+xml</dc:format>
        <dc:type
           rdf:resource="http://purl.org/dc/dcmitype/StillImage" />
        <dc:title></dc:title>
      </cc:Work>
    </rdf:RDF>
  </metadata>
  <g
     inkscape:label="Layer 1"
     inkscape:groupmode="layer"
     id="layer1"
     transform="translate(0,-308.2677)">
    <path
       style="fill:none;stroke:#000000;stroke-width:2.313;stroke-linecap:butt;stroke-linejoin:miter;stroke-opacity:1;stroke-miterlimit:4;stroke-dasharray:none"
       d="M 80.334065,604.21523 35.380022,601.49369"
       id="path5113"
       inkscape:connector-curvature="0" />
    <rect
       style="fill:#c9c9c9;fill-opacity:1;stroke:none"
       id="rect2816"
       width="644.98889"
       height="34.993019"
       x="75.714287"
       y="-644.49805"
       transform="scale(1,-1)"
       inkscape:export-filename="/home/mosa/Sources/Scuola/martin_latisana/laboratori_2010/Laboratorio_meccanica_2/Scheda/Immagini/imbuto.png"
       inkscape:export-xdpi="200.89999"
       inkscape:export-ydpi="200.89999" />
    <rect
       y="588.37054"
       x="397.14255"
       height="25"
       width="70"
       id="rect5190"
       style="fill:#f42121;fill-opacity:1;stroke:none" />
    <rect
       y="586.44476"
       x="418.60406"
       height="5.0933261"
       width="28.634253"
       id="rect5192"
       style="fill:#989898;fill-opacity:1;stroke:none" />
    <path
       inkscape:connector-curvature="0"
       style="fill:none;stroke:#000000;stroke-width:1.01999998;stroke-linecap:butt;stroke-linejoin:miter;stroke-miterlimit:4;stroke-opacity:1;stroke-dasharray:none;stroke-dashoffset:0;marker-end:url(#Arrow2Mend)"
       d="m 394.70438,597.49829 -48.42225,0"
       id="path5413"
       inkscape:export-filename="/home/mosa/Sources/Scuola/martin_latisana/laboratori_2010/Laboratorio_meccanica_2/Scheda/Immagini/imbuto.png"
       inkscape:export-xdpi="200.89999"
       inkscape:export-ydpi="200.89999" />
    <path
       style="fill:none;stroke:#000000;stroke-width:1.1189096px;stroke-linecap:butt;stroke-linejoin:miter;stroke-opacity:1"
       d="m 454.31537,507.11719 c 0,0 -15.1304,16.2204 -12.4028,35.12767 0.55682,3.85973 -8.13934,8.07531 -8.13934,8.07531 l 3.87587,6.46027 c 0,0 4.95402,-8.86059 7.75176,-6.86403 11.57431,8.25977 35.2705,2.42259 35.2705,2.42259 l -26.35599,-45.22181 z"
       id="path5964"
       sodipodi:nodetypes="csccscc"
       inkscape:export-filename="/home/mosa/Sources/Scuola/martin_latisana/laboratori_2010/Laboratorio_meccanica_2/Scheda/Immagini/imbuto.png"
       inkscape:export-xdpi="200.89999"
       inkscape:export-ydpi="200.89999"
       inkscape:connector-curvature="0" />
    <rect
       style="fill:#35e7d0;fill-opacity:1;stroke:#000000;stroke-width:1.13601458000000011;stroke-miterlimit:4;stroke-opacity:1;stroke-dasharray:none"
       id="rect5966"
       width="46.09877"
       height="26.309994"
       x="409.90256"
       y="554.6106"
       inkscape:export-filename="/home/mosa/Sources/Scuola/martin_latisana/laboratori_2010/Laboratorio_meccanica_2/Scheda/Immagini/imbuto.png"
       inkscape:export-xdpi="200.89999"
       inkscape:export-ydpi="200.89999" />
    <path
       style="fill:none;stroke:#258be7;stroke-width:3.29999995;stroke-linecap:butt;stroke-linejoin:miter;stroke-miterlimit:4;stroke-opacity:1;stroke-dasharray:13.2, 6.6;stroke-dashoffset:0;marker-start:none"
       d="m 474.8222,221.18902 22.27387,-12.02082 c 9.71505,-5.24304 24.24408,-9.17131 36.76955,-10.96015 13.45373,-1.9214 36.35036,-1.79316 36.35036,-1.79316"
       id="path5968"
       transform="translate(0,308.2677)"
       sodipodi:nodetypes="csss"
       inkscape:export-filename="/home/mosa/Sources/Scuola/martin_latisana/laboratori_2010/Laboratorio_meccanica_2/Scheda/Immagini/imbuto.png"
       inkscape:export-xdpi="200.89999"
       inkscape:export-ydpi="200.89999"
       inkscape:connector-curvature="0" />
    <text
       xml:space="preserve"
       style="font-size:8.39525223px;font-style:normal;font-variant:normal;font-weight:normal;font-stretch:normal;fill:#000000;fill-opacity:1;stroke:none;font-family:Bitstream Charter;-inkscape-font-specification:Bitstream Charter"
       x="467.61981"
       y="558.14313"
       id="text7116"
       transform="scale(1.0398176,0.96170712)"
       inkscape:export-filename="/home/mosa/Sources/Scuola/martin_latisana/laboratori_2010/Laboratorio_meccanica_2/Scheda/Immagini/imbuto.png"
       inkscape:export-xdpi="200.89999"
       inkscape:export-ydpi="200.89999"><tspan
         sodipodi:role="line"
         id="tspan7118"
         x="467.61981"
         y="558.14313">Acqua</tspan></text>
    <rect
       y="583.83209"
       x="401.81522"
       height="5.0933261"
       width="8.4817095"
       id="rect5192-8"
       style="fill:#130000;fill-opacity:1;stroke:none" />
    <rect
       y="578.17529"
       x="401.63846"
       height="5.0933261"
       width="8.4817095"
       id="rect5192-8-5"
       style="fill:#130000;fill-opacity:1;stroke:none" />
    <rect
       y="581.79651"
       x="402.60236"
       height="5.0933261"
       width="6.7139425"
       id="rect5192-8-5-6"
       style="fill:#130000;fill-opacity:1;stroke:none" />
    <rect
       y="583.97894"
       x="456.10272"
       height="5.0933261"
       width="8.4817095"
       id="rect5192-8-2"
       style="fill:#130000;fill-opacity:1;stroke:none" />
    <rect
       y="578.32214"
       x="455.92596"
       height="5.0933261"
       width="8.4817095"
       id="rect5192-8-5-67"
       style="fill:#130000;fill-opacity:1;stroke:none" />
    <rect
       y="581.94336"
       x="456.88986"
       height="5.0933261"
       width="6.7139425"
       id="rect5192-8-5-6-5"
       style="fill:#130000;fill-opacity:1;stroke:none" />
    <g
       transform="matrix(0.22152043,0,0,0.22152043,358.22399,491.10683)"
       id="g3932">
      <g
         style="font-style:normal;font-variant:normal;font-weight:normal;font-stretch:normal;letter-spacing:normal;word-spacing:normal;text-anchor:start;fill:none;stroke:#000000;stroke-linecap:butt;stroke-linejoin:miter;stroke-miterlimit:10.43299961;stroke-opacity:1;stroke-dasharray:none;stroke-dashoffset:0"
         id="content"
         transform="matrix(1.0629921,0,0,-1.0629921,-186.02362,789.27165)"
         xml:space="preserve"
         stroke-miterlimit="10.433"
         font-style="normal"
         font-variant="normal"
         font-weight="normal"
         font-stretch="normal"
         font-size-adjust="none"
         letter-spacing="normal"
         word-spacing="normal"><path
           style="fill:#000000;stroke-width:0"
           inkscape:connector-curvature="0"
           d="m 501.66,436.39 0.04,0.16 0.04,0.16 0.04,0.15 0.04,0.14 0.04,0.14 0.04,0.13 0.04,0.12 0.05,0.11 0.05,0.11 0.05,0.11 0.07,0.09 0.06,0.09 0.08,0.09 0.08,0.08 0.09,0.07 0.09,0.07 0.11,0.06 0.12,0.06 0.13,0.05 0.14,0.05 0.15,0.04 0.09,0.02 0.08,0.02 0.09,0.02 0.09,0.02 0.1,0.01 0.1,0.02 0.1,0.01 0.11,0.01 0.11,0.02 0.12,0.01 0.12,0.01 0.12,0 0.13,0.01 0.13,0.01 0.14,0.01 0.14,0 0.15,0 0.15,0.01 0.16,0 0.16,0 0.17,0 0.17,0 c 1.14,0 1.6,0 1.6,1 0,0.55 -0.5,0.55 -1.35,0.55 h -6.58 c -1.29,0 -1.34,0 -1.93,-0.95 l -18.19,-28.39 -3.89,28.18 c -0.16,1.16 -0.25,1.16 -1.55,1.16 h -6.83 c -0.93,0 -1.48,0 -1.48,-0.95 0,-0.6 0.44,-0.6 1.44,-0.6 0.65,0 1.54,-0.04 2.14,-0.09 0.79,-0.11 1.09,-0.25 1.09,-0.8 0,-0.2 -0.05,-0.36 -0.19,-0.95 l -6.33,-25.36 c -0.5,-2 -1.34,-3.59 -5.39,-3.73 -0.25,0 -0.89,-0.05 -0.89,-0.96 0,-0.43 0.3,-0.59 0.71,-0.59 1.59,0 3.32,0.16 4.97,0.16 1.7,0 3.5,-0.16 5.14,-0.16 0.25,0 0.89,0 0.89,1 0,0.55 -0.55,0.55 -0.89,0.55 -2.85,0.04 -3.39,1.04 -3.39,2.18 0,0.35 0.04,0.6 0.2,1.14 l 6.76,27.16 h 0.07 l 4.28,-30.89 c 0.09,-0.59 0.14,-1.14 0.75,-1.14 0.54,0 0.84,0.55 1.09,0.89 l 20.13,31.55 h 0.04 l -7.12,-28.55 c -0.5,-1.95 -0.6,-2.34 -4.53,-2.34 -0.85,0 -1.39,0 -1.39,-0.96 0,-0.59 0.59,-0.59 0.75,-0.59 1.39,0 4.78,0.16 6.17,0.16 2.05,0 4.19,-0.16 6.23,-0.16 0.3,0 0.94,0 0.94,1 0,0.55 -0.45,0.55 -1.39,0.55 -1.84,0 -3.23,0 -3.23,0.89 0,0.2 0,0.29 0.25,1.2 z"
           id="path3935" /><path
           style="fill:#000000;stroke-width:0"
           inkscape:connector-curvature="0"
           d="m 515.55,420.92 0,0.04 0,0.04 0,0.05 0,0.04 0,0.03 0,0.04 0,0.04 0,0.03 -0.01,0.04 0,0.03 0,0.03 0,0.03 0,0.03 -0.01,0.03 0,0.03 0,0.02 -0.01,0.03 0,0.02 -0.01,0.03 0,0.02 -0.02,0.04 -0.01,0.04 -0.02,0.03 -0.02,0.03 -0.02,0.03 -0.02,0.03 -0.03,0.02 -0.03,0.02 -0.04,0.02 -0.03,0.01 -0.04,0.01 -0.05,0.02 -0.02,0 -0.03,0 -0.02,0.01 -0.03,0 -0.02,0.01 -0.03,0 -0.03,0 -0.03,0 -0.04,0 -0.03,0.01 -0.03,0 -0.04,0 -0.04,0 -0.03,0 -0.04,0 -0.04,0 -0.04,0 -0.05,0 -0.04,0 -0.05,0 c -2.23,-2.2 -5.39,-2.23 -6.82,-2.23 v -1.25 c 0.84,0 3.14,0 5.04,0.97 v -17.77 c 0,-1.16 0,-1.61 -3.48,-1.61 h -1.31 v -1.25 c 0.62,0.03 4.9,0.14 6.2,0.14 1.08,0 5.47,-0.11 6.23,-0.14 v 1.25 h -1.33 c -3.48,0 -3.48,0.45 -3.48,1.61 z"
           id="path3937" /></g>    </g>
    <text
       transform="translate(0,308.2677)"
       sodipodi:linespacing="125%"
       id="text4430"
       y="274.31165"
       x="364.66379"
       style="font-size:28px;font-style:normal;font-variant:normal;font-weight:normal;font-stretch:normal;line-height:125%;letter-spacing:0px;word-spacing:0px;fill:#000000;fill-opacity:1;stroke:none;font-family:Bitstream Charter;-inkscape-font-specification:Bitstream Charter"
       xml:space="preserve"><tspan
         y="274.31165"
         x="364.66379"
         id="tspan4432"
         sodipodi:role="line" /></text>
    <g
       id="g4815"
       transform="matrix(0.18539441,0,0,0.18539441,315.3793,525.40351)">
      <g
         id="g4817"
         transform="matrix(1.0629921,0,0,-1.0629921,-186.02362,789.27165)"
         xml:space="preserve"
         stroke-miterlimit="10.433"
         font-style="normal"
         font-variant="normal"
         font-weight="normal"
         font-stretch="normal"
         font-size-adjust="none"
         letter-spacing="normal"
         word-spacing="normal"
         style="font-style:normal;font-variant:normal;font-weight:normal;font-stretch:normal;letter-spacing:normal;word-spacing:normal;text-anchor:start;fill:none;stroke:#000000;stroke-linecap:butt;stroke-linejoin:miter;stroke-miterlimit:10.43299961;stroke-opacity:1;stroke-dasharray:none;stroke-dashoffset:0"><path
           d="m 466.47,408.14 0.21,-0.16 0.2,-0.15 0.2,-0.15 0.2,-0.14 0.21,-0.13 0.2,-0.12 0.2,-0.12 0.2,-0.11 0.21,-0.11 0.2,-0.1 0.2,-0.09 0.2,-0.09 0.2,-0.09 0.21,-0.07 0.2,-0.07 0.2,-0.07 0.2,-0.06 0.2,-0.06 0.4,-0.1 0.4,-0.08 0.39,-0.06 0.4,-0.05 0.39,-0.03 0.39,-0.02 0.38,-0.01 -0.54,1.8 c -0.71,0 -3.05,0 -5.28,2.69 -0.57,0.64 -0.57,0.68 -0.57,1.64 v 10.56 c 0,0.95 0.07,1 0.75,1.69 2,2.04 4.6,2.34 5.69,2.34 3.33,0 6.13,-3.03 6.13,-9.31 0,-7.03 -3.49,-9.61 -6.72,-9.61 l 0.54,-1.8 c 7.47,0 12.55,4.49 12.55,11.41 0,6.62 -4.53,11.31 -11.7,11.31 -3.74,0 -6.38,-1.55 -7.53,-2.44 v 2.44 l -8.82,-0.41 v -2.34 c 3.1,0 3.44,0 3.44,-1.89 v -25.11 h -3.44 v -2.34 c 1.39,0.06 4.39,0.15 6.28,0.15 1.94,0 4.88,-0.09 6.27,-0.15 v 2.34 h -3.44 z"
           id="path4819"
           inkscape:connector-curvature="0"
           style="fill:#000000;stroke-width:0" /><path
           d="m 501.51,412.53 h 3.4 c 0.71,0 1.16,0 1.16,0.76 0,0.49 -0.45,0.49 -1.08,0.49 h -3.25 c 0.81,4.42 1.08,6.03 1.36,7.04 0.17,0.77 0.94,1.5 1.78,1.5 0.03,0 0.97,0 1.64,-0.42 -1.43,-0.45 -1.53,-1.72 -1.53,-1.92 0,-0.77 0.6,-1.28 1.39,-1.28 0.94,0 1.99,0.8 1.99,2.12 0,1.6 -1.71,2.47 -3.49,2.47 -1.53,0 -3.23,-0.87 -4.18,-2.61 -0.69,-1.29 -0.97,-2.86 -1.71,-6.9 h -2.75 c -0.7,0 -1.15,0 -1.15,-0.77 0,-0.48 0.45,-0.48 1.07,-0.48 h 2.58 c -0.03,-0.22 -2.22,-12.75 -3.06,-16.49 -0.17,-0.76 -0.77,-3.4 -2.44,-3.4 -0.03,0 -0.87,0 -1.53,0.4 1.42,0.46 1.53,1.72 1.53,1.92 0,0.77 -0.59,1.29 -1.39,1.29 -0.94,0 -1.98,-0.8 -1.98,-2.13 0,-1.56 1.64,-2.47 3.37,-2.47 2.24,0 3.77,2.3 4.19,3.06 1.25,2.35 2.05,6.63 2.12,7.05 z"
           id="path4821"
           inkscape:connector-curvature="0"
           style="fill:#000000;stroke-width:0" /></g>    </g>
    <g
       id="g4921"
       transform="matrix(0.18539441,0,0,0.18539441,497.30789,449.94343)">
      <g
         word-spacing="normal"
         letter-spacing="normal"
         font-size-adjust="none"
         font-stretch="normal"
         font-weight="normal"
         font-variant="normal"
         font-style="normal"
         stroke-miterlimit="10.433"
         xml:space="preserve"
         transform="matrix(1.0629921,0,0,-1.0629921,-186.02362,789.27165)"
         id="g4923"
         style="font-style:normal;font-variant:normal;font-weight:normal;font-stretch:normal;letter-spacing:normal;word-spacing:normal;text-anchor:start;fill:none;stroke:#000000;stroke-linecap:butt;stroke-linejoin:miter;stroke-miterlimit:10.43299961;stroke-opacity:1;stroke-dasharray:none;stroke-dashoffset:0"><path
           id="path4925"
           d="m 466.47,408.14 0.21,-0.16 0.2,-0.15 0.2,-0.15 0.2,-0.14 0.21,-0.13 0.2,-0.12 0.2,-0.12 0.2,-0.11 0.21,-0.11 0.2,-0.1 0.2,-0.09 0.2,-0.09 0.2,-0.09 0.21,-0.07 0.2,-0.07 0.2,-0.07 0.2,-0.06 0.2,-0.06 0.4,-0.1 0.4,-0.08 0.39,-0.06 0.4,-0.05 0.39,-0.03 0.39,-0.02 0.38,-0.01 -0.54,1.8 c -0.71,0 -3.05,0 -5.28,2.69 -0.57,0.64 -0.57,0.68 -0.57,1.64 v 10.56 c 0,0.95 0.07,1 0.75,1.69 2,2.04 4.6,2.34 5.69,2.34 3.33,0 6.13,-3.03 6.13,-9.31 0,-7.03 -3.49,-9.61 -6.72,-9.61 l 0.54,-1.8 c 7.47,0 12.55,4.49 12.55,11.41 0,6.62 -4.53,11.31 -11.7,11.31 -3.74,0 -6.38,-1.55 -7.53,-2.44 v 2.44 l -8.82,-0.41 v -2.34 c 3.1,0 3.44,0 3.44,-1.89 v -25.11 h -3.44 v -2.34 c 1.39,0.06 4.39,0.15 6.28,0.15 1.94,0 4.88,-0.09 6.27,-0.15 v 2.34 h -3.44 z"
           inkscape:connector-curvature="0"
           style="fill:#000000;stroke-width:0" /><path
           id="path4927"
           d="m 498.62,420.54 0,0.05 -0.01,0.06 0,0.05 -0.01,0.06 -0.01,0.05 -0.02,0.06 -0.02,0.05 -0.01,0.06 -0.03,0.06 -0.02,0.05 -0.03,0.06 -0.03,0.05 -0.03,0.06 -0.04,0.05 -0.04,0.05 -0.04,0.05 -0.04,0.05 -0.05,0.05 -0.05,0.04 -0.05,0.05 -0.06,0.04 -0.06,0.03 -0.06,0.04 -0.06,0.03 -0.07,0.03 -0.07,0.03 -0.08,0.02 -0.08,0.02 -0.08,0.01 -0.08,0.01 -0.09,0.01 -0.09,0 c -0.94,0 -1.95,-0.91 -1.95,-1.92 0,-0.59 0.45,-1.33 1.4,-1.33 1,0 1.96,0.99 1.96,1.92 z"
           inkscape:connector-curvature="0"
           style="fill:#000000;stroke-width:0" /><path
           id="path4929"
           d="m 491.51,402.84 -0.06,-0.17 -0.05,-0.17 -0.03,-0.08 -0.02,-0.09 -0.03,-0.08 -0.02,-0.09 -0.02,-0.09 -0.02,-0.09 -0.02,-0.1 -0.02,-0.09 -0.01,-0.1 0,-0.05 -0.01,-0.05 0,-0.06 0,-0.05 0,-0.05 0,-0.06 c 0,-1.64 1.39,-2.95 3.29,-2.95 3.49,0 5.03,4.79 5.03,5.33 0,0.45 -0.45,0.45 -0.56,0.45 -0.48,0 -0.53,-0.2 -0.67,-0.59 -0.8,-2.79 -2.33,-4.22 -3.69,-4.22 -0.7,0 -0.87,0.45 -0.87,1.22 0,0.79 0.25,1.46 0.56,2.23 0.34,0.94 0.73,1.87 1.11,2.78 0.31,0.84 1.58,4.02 1.72,4.44 0.09,0.34 0.2,0.76 0.2,1.11 0,1.64 -1.39,2.95 -3.31,2.95 -3.46,0 -5.05,-4.73 -5.05,-5.33 0,-0.45 0.49,-0.45 0.59,-0.45 0.49,0 0.52,0.17 0.63,0.56 0.91,3 2.44,4.25 3.72,4.25 0.56,0 0.87,-0.28 0.87,-1.22 0,-0.79 -0.2,-1.32 -1.07,-3.48 z"
           inkscape:connector-curvature="0"
           style="fill:#000000;stroke-width:0" /></g>    </g>
    <path
       inkscape:connector-curvature="0"
       style="fill:none;stroke:#000000;stroke-width:1.01999998;stroke-linecap:butt;stroke-linejoin:miter;stroke-miterlimit:4;stroke-opacity:1;stroke-dasharray:none;stroke-dashoffset:0;marker-end:url(#Arrow2Mend)"
       d="m 563.16106,499.04278 -51.14812,-0.63104"
       id="path5413-8"
       inkscape:export-filename="/home/mosa/Sources/Scuola/martin_latisana/laboratori_2010/Laboratorio_meccanica_2/Scheda/Immagini/imbuto.png"
       inkscape:export-xdpi="200.89999"
       inkscape:export-ydpi="200.89999" />
    <rect
       style="fill:#d3fff9;fill-opacity:1;fill-rule:nonzero;stroke:#000000;stroke-width:0.22;stroke-linecap:butt;stroke-miterlimit:4;stroke-opacity:1;stroke-dasharray:none;stroke-dashoffset:0"
       id="rect5008"
       width="66.071739"
       height="16.678303"
       x="578.60876"
       y="496.84641" />
    <rect
       style="fill:#ffffff;fill-opacity:1;fill-rule:nonzero;stroke:none"
       id="rect5008-2"
       width="16.266832"
       height="15.317533"
       x="627.61804"
       y="497.44705" />
    <rect
       style="fill:#363636;fill-opacity:1;fill-rule:nonzero;stroke:none"
       id="rect5008-2-5"
       width="4.2466965"
       height="15.317533"
       x="623.71747"
       y="497.44702" />
    <rect
       style="fill:#e9ffff;fill-opacity:1;fill-rule:nonzero;stroke:#000000;stroke-opacity:1;stroke-width:0.1;stroke-miterlimit:4;stroke-dasharray:none"
       id="rect5046"
       width="38.101562"
       height="5.2162852"
       x="627.99536"
       y="501.93069" />
    <rect
       style="fill:#e9ffff;fill-opacity:1;fill-rule:nonzero;stroke:#000000;stroke-width:0.04639687;stroke-miterlimit:4;stroke-opacity:1;stroke-dasharray:none"
       id="rect5046-6"
       width="16.826164"
       height="2.5427067"
       x="495.76157"
       y="-666.9364"
       transform="matrix(0,1,-1,0,0,0)" />
    <rect
       style="fill:#d3fff9;fill-opacity:1;fill-rule:nonzero;stroke:#000000;stroke-width:0.226;stroke-linecap:butt;stroke-miterlimit:4;stroke-opacity:1;stroke-dasharray:none;stroke-dashoffset:0"
       id="rect5008-3"
       width="4.3026395"
       height="3.5792689"
       x="574.27289"
       y="503.06186" />
    <path
       style="fill:#666363;fill-opacity:1;fill-rule:nonzero;stroke:#ae9292;stroke-width:0.226;stroke-linecap:butt;stroke-miterlimit:4;stroke-opacity:1;stroke-dashoffset:0"
       d="m 76.203124,550.69161 c 12.511875,-37.91292 43.733296,-43.356 59.873886,-3.62872 7.39845,18.21001 0.90718,62.59542 0.90718,62.59542 l -60.781066,0 c 0,0 -6.159883,-40.3013 0,-58.9667 z"
       id="rect5084"
       inkscape:connector-curvature="0"
       sodipodi:nodetypes="ssccs" />
    <text
       xml:space="preserve"
       style="font-size:13.95885468px;font-style:normal;font-variant:normal;font-weight:normal;font-stretch:normal;line-height:125%;letter-spacing:0px;word-spacing:0px;fill:#000000;fill-opacity:1;stroke:none;font-family:Bitstream Charter;-inkscape-font-specification:Bitstream Charter"
       x="21.659992"
       y="594.33453"
       id="text5121"
       sodipodi:linespacing="125%"><tspan
         sodipodi:role="line"
         id="tspan5123"
         x="21.659992"
         y="594.33453">Al Pc</tspan></text>
    <text
       xml:space="preserve"
       style="font-size:14.01598549px;font-style:normal;font-variant:normal;font-weight:normal;font-stretch:normal;line-height:125%;letter-spacing:0px;word-spacing:0px;fill:#000000;fill-opacity:1;stroke:none;font-family:Bitstream Charter;-inkscape-font-specification:Bitstream Charter"
       x="46.818634"
       y="511.36984"
       id="text5121-1"
       sodipodi:linespacing="125%"><tspan
         sodipodi:role="line"
         id="tspan5123-4"
         x="46.818634"
         y="511.36984">Sensore di moto</tspan></text>
    <rect
       style="fill:#190000;fill-opacity:1;fill-rule:nonzero;stroke:#060000;stroke-width:2.31299995999999997;stroke-linecap:butt;stroke-miterlimit:4;stroke-opacity:1;stroke-dasharray:none;stroke-dashoffset:0"
       id="rect5146"
       width="63.502605"
       height="13.607701"
       x="75.295944"
       y="289.59726"
       transform="translate(0,308.2677)" />
  </g>
</svg>
